<?xml version="1.0" standalone="no"?>
<!DOCTYPE svg PUBLIC "-//W3C//DTD SVG 20010904//EN"
 "http://www.w3.org/TR/2001/REC-SVG-20010904/DTD/svg10.dtd">
<svg version="1.0" xmlns="http://www.w3.org/2000/svg"
 width="2565.000000pt" height="2565.000000pt" viewBox="0 0 2565.000000 2565.000000"
 preserveAspectRatio="xMidYMid meet">
<metadata>
Created by potrace 1.14, written by Peter Selinger 2001-2017
</metadata>
<g transform="translate(0.000000,2565.000000) scale(0.100000,-0.100000)"
fill="#000000" stroke="none">
<path d="M5167 17494 c-1 -1 -35 -5 -75 -8 -399 -37 -764 -354 -852 -741 -21
-94 -23 -200 -23 -1425 0 -1173 2 -1292 18 -1368 19 -95 63 -211 111 -292 133
-225 354 -389 622 -462 113 -31 485 -35 618 -7 345 72 634 321 742 639 50 148
50 156 51 947 l2 742 -546 0 -545 0 -1 -22 c0 -18 0 -423 1 -477 0 -13 35 -15
260 -14 257 1 260 1 265 -20 2 -12 3 -228 1 -481 -2 -384 -5 -468 -18 -507
-45 -135 -153 -247 -289 -298 -45 -17 -329 -23 -389 -8 -157 38 -291 178 -324
340 -10 50 -13 320 -11 1323 1 693 5 1273 9 1290 31 128 144 262 263 310 63
26 78 28 222 30 213 3 298 -24 398 -122 96 -96 134 -187 138 -333 2 -52 4
-105 4 -117 l1 -23 281 0 280 0 -2 123 c-5 277 -89 489 -269 675 -127 132
-331 247 -495 278 -22 5 -42 9 -45 9 -50 12 -392 28 -403 19z"/>
<path d="M11167 17494 c-1 -1 -32 -4 -69 -8 -411 -38 -754 -330 -861 -729
l-22 -82 0 -1330 c0 -731 3 -1350 7 -1375 5 -25 19 -79 32 -121 110 -345 404
-598 772 -663 76 -14 460 -16 524 -3 65 13 134 31 160 42 3 2 16 6 30 11 52
16 189 92 249 138 243 187 375 445 381 744 3 184 1 2485 -3 2517 -55 449 -421
802 -882 851 -50 6 -313 12 -318 8z m328 -523 c158 -60 261 -177 299 -340 11
-46 13 -299 13 -1295 0 -719 -4 -1259 -9 -1289 -27 -150 -144 -289 -288 -343
-55 -21 -307 -29 -390 -13 -160 31 -289 159 -336 334 -11 41 -14 282 -14 1311
0 1373 -3 1300 55 1414 52 104 165 195 275 223 66 18 348 16 395 -2z"/>
<path d="M7885 17302 c-14 -75 -29 -146 -31 -157 -2 -11 -7 -33 -10 -50 -3
-16 -19 -97 -36 -180 -16 -82 -32 -161 -34 -175 -3 -14 -7 -32 -9 -40 -2 -8
-7 -31 -10 -50 -3 -19 -8 -42 -10 -50 -2 -8 -7 -28 -9 -45 -3 -16 -22 -111
-42 -210 -20 -99 -38 -191 -41 -205 -2 -14 -18 -92 -35 -175 -16 -82 -31 -159
-33 -170 -2 -11 -17 -87 -34 -169 -17 -82 -34 -163 -36 -180 -3 -17 -8 -38
-10 -46 -2 -8 -7 -31 -10 -50 -3 -19 -17 -89 -31 -155 -13 -66 -27 -133 -30
-150 -3 -16 -21 -109 -40 -205 -20 -96 -38 -186 -40 -200 -3 -14 -7 -32 -9
-40 -2 -8 -7 -30 -10 -49 -3 -19 -20 -103 -37 -185 -16 -83 -31 -160 -33 -171
-2 -11 -20 -101 -40 -200 -20 -99 -39 -191 -41 -205 -3 -14 -21 -104 -41 -200
-19 -96 -37 -186 -39 -200 -1 -14 -10 -54 -18 -90 -8 -35 -13 -67 -10 -69 3
-3 129 -6 280 -6 267 0 275 0 279 20 4 17 26 146 50 285 3 19 15 85 25 145 11
61 22 124 25 140 8 48 15 85 30 170 18 98 23 129 30 180 4 22 8 47 10 55 2 8
7 35 10 60 3 25 8 52 11 61 2 9 7 34 9 55 3 21 8 40 11 43 4 5 854 9 854 5 0
-1 5 -26 11 -55 5 -30 12 -70 15 -89 2 -19 7 -42 9 -50 2 -8 7 -31 10 -50 7
-46 24 -139 30 -170 3 -14 10 -51 15 -82 6 -32 15 -86 21 -120 6 -35 13 -72
15 -83 9 -53 54 -302 57 -320 12 -53 28 -165 25 -168 -1 -2 2 -10 9 -18 10
-12 61 -14 290 -14 196 1 277 4 276 12 -1 6 -5 25 -8 42 -3 17 -12 63 -20 101
-8 38 -17 84 -20 102 -3 18 -14 76 -25 128 -10 52 -38 192 -61 310 -22 118
-42 222 -44 230 -2 8 -15 76 -30 150 -15 74 -40 200 -55 280 -16 80 -31 156
-34 170 -3 14 -10 50 -16 80 -6 30 -13 70 -16 89 -3 18 -7 41 -9 50 -2 9 -20
99 -40 201 -20 102 -48 241 -62 310 -13 69 -27 136 -29 150 -2 14 -7 36 -10
50 -3 14 -8 36 -10 50 -3 14 -16 81 -29 150 -14 69 -27 136 -30 150 -3 14 -14
70 -24 125 -11 55 -22 111 -25 125 -2 14 -12 63 -21 110 -9 47 -19 96 -22 110
-2 14 -13 70 -24 125 -11 55 -38 192 -60 305 -22 113 -42 212 -44 221 -2 9 -6
33 -9 53 -3 19 -10 55 -15 78 -6 24 -12 57 -15 73 -3 17 -8 42 -11 56 l-6 27
-373 0 -373 1 -28 -137z m429 -672 c6 -39 12 -71 26 -145 11 -57 16 -86 30
-170 5 -33 12 -71 15 -85 2 -14 13 -77 25 -140 11 -63 22 -125 25 -138 2 -13
13 -76 24 -140 12 -64 23 -127 25 -138 2 -12 7 -37 10 -55 3 -19 8 -47 11 -64
24 -136 35 -194 40 -220 4 -27 48 -273 62 -352 l6 -33 -340 0 -340 0 9 48 c4
26 18 99 29 162 11 63 22 126 25 140 3 14 6 34 8 45 7 37 25 140 41 225 8 47
27 148 40 225 14 77 27 151 30 165 2 14 6 36 9 50 2 14 11 63 20 110 21 117
25 140 32 180 3 19 7 42 9 50 3 8 7 32 11 54 3 21 8 48 10 60 2 11 13 71 23
131 11 61 24 129 29 153 6 23 10 45 11 47 1 3 2 15 2 28 1 20 30 -110 43 -193z"/>
<path d="M16313 16992 l-23 -3 0 -1660 0 -1659 280 0 280 0 0 1660 c0 1321 -3
1660 -12 1661 -42 3 -507 3 -525 1z"/>
<path d="M17840 16990 c-5 -3 -9 -751 -9 -1663 l0 -1657 280 0 c153 0 279 3
280 8 4 54 0 3305 -5 3309 -7 7 -535 10 -546 3z"/>
<path d="M19320 16587 l0 -394 215 -129 c118 -71 230 -138 249 -149 36 -20
145 -86 197 -117 16 -10 42 -26 59 -35 16 -10 100 -61 187 -113 87 -52 167
-100 178 -106 11 -6 63 -37 115 -69 52 -32 109 -66 125 -75 80 -46 105 -63
105 -70 0 -7 -21 -21 -101 -69 -145 -87 -337 -202 -494 -298 -104 -64 -199
-121 -210 -127 -20 -12 -398 -240 -425 -257 -8 -5 -55 -33 -105 -63 l-90 -53
-3 -397 -2 -397 27 18 c50 32 1098 732 1108 740 6 4 225 151 488 327 289 193
477 325 478 335 5 95 0 494 -7 500 -11 11 -2053 1370 -2076 1382 -17 9 -18
-12 -18 -384z"/>
<path d="M5015 12461 c-271 -56 -495 -204 -642 -424 -40 -60 -109 -205 -118
-247 -2 -8 -8 -33 -13 -55 -20 -76 -25 -151 -25 -395 0 -223 6 -347 19 -392 3
-9 7 -26 9 -39 5 -23 23 -84 32 -109 4 -8 7 -17 8 -20 5 -22 49 -106 80 -155
42 -65 168 -197 225 -236 19 -12 37 -26 40 -29 9 -12 125 -77 215 -123 101
-51 101 -51 355 -154 200 -81 294 -126 380 -184 113 -75 195 -186 220 -294 15
-65 15 -523 0 -589 -35 -159 -164 -294 -320 -336 -47 -13 -291 -17 -350 -5
-64 12 -157 64 -212 119 -93 93 -129 185 -134 341 -2 61 -3 113 -4 116 0 4
-126 7 -280 7 l-280 1 -1 -22 c-3 -72 -1 -190 5 -237 20 -159 103 -353 204
-475 57 -69 183 -183 232 -209 14 -7 51 -28 82 -45 147 -82 302 -114 548 -113
193 1 219 3 335 29 218 48 456 209 578 392 44 65 122 211 113 211 -3 0 1 15 9
34 16 37 30 96 40 166 9 59 9 610 0 680 -26 216 -107 386 -246 522 -142 137
-302 222 -769 408 -236 94 -352 162 -442 257 -104 112 -125 197 -125 504 0
180 3 225 19 284 46 167 192 303 349 324 96 12 279 5 344 -13 112 -33 214
-120 268 -229 36 -74 47 -129 49 -247 l1 -100 41 -1 c156 -3 508 0 513 4 7 8
6 223 -1 265 -22 121 -41 183 -79 264 -137 292 -394 487 -727 554 -19 4 -129
8 -245 10 -175 3 -225 0 -300 -15z"/>
<path d="M20149 12476 c-2 -2 -24 -7 -49 -10 -342 -45 -664 -312 -774 -641
-35 -103 -34 -102 -44 -159 -10 -58 -9 -2640 1 -2705 5 -29 20 -86 33 -125 13
-39 26 -75 27 -81 7 -25 60 -120 97 -175 23 -34 74 -94 115 -134 157 -156 342
-247 575 -281 52 -8 426 -9 438 -1 4 3 30 7 57 11 169 20 415 151 540 288 95
103 142 172 191 283 55 125 72 222 74 429 2 233 2 1948 0 2245 -2 269 -18 357
-95 511 -142 282 -406 477 -725 534 -66 11 -451 21 -461 11z m366 -510 c22 -3
68 -20 101 -36 103 -50 181 -140 225 -260 l24 -65 0 -1285 0 -1285 -24 -65
c-58 -159 -181 -267 -335 -296 -17 -3 -90 -6 -161 -6 -143 -1 -216 14 -293 59
-99 57 -186 182 -211 301 -8 37 -11 431 -10 1305 l0 1252 23 70 c27 86 63 142
124 201 53 51 147 101 207 110 22 3 41 7 42 8 5 4 253 -2 288 -8z"/>
<path d="M7150 12420 c-4 -3 -7 -116 -7 -252 l0 -248 448 0 449 0 2 -1852 3
-1853 278 -1 277 -1 0 1854 0 1853 448 0 447 0 -1 243 c-1 133 -2 247 -3 252
-1 10 -2325 15 -2341 5z"/>
<path d="M10249 12395 c-4 -208 1 -3336 6 -3380 30 -276 191 -537 428 -693 43
-29 81 -52 84 -52 3 0 29 -11 57 -24 83 -39 138 -56 236 -72 19 -3 38 -8 42
-10 16 -10 408 -5 473 6 272 44 510 192 666 413 66 95 125 223 145 317 4 19 9
46 13 60 3 14 6 799 8 1745 l3 1720 -277 -1 c-153 -1 -280 -2 -283 -3 -3 0 -5
-760 -5 -1689 -1 -1603 -2 -1690 -19 -1742 -52 -156 -166 -270 -308 -306 -75
-20 -285 -22 -369 -5 -110 23 -223 111 -281 217 -62 115 -59 6 -59 1847 0 922
-3 1678 -7 1678 -4 1 -130 2 -279 3 l-273 1 -1 -30z"/>
<path d="M13020 12173 l0 -253 167 -2 168 -3 0 -1595 0 -1595 -120 -2 c-66 -1
-141 -2 -167 -2 l-48 -1 0 -253 0 -254 793 2 c851 2 842 1 990 56 324 118 561
384 633 710 17 76 19 246 19 1369 0 1311 2 1255 -47 1410 -68 214 -227 407
-437 530 -104 60 -203 95 -361 126 -19 4 -385 7 -812 8 l-778 1 0 -252z m1571
-276 c129 -44 230 -148 275 -285 l23 -67 0 -1216 c1 -1329 4 -1255 -56 -1373
-33 -65 -111 -146 -170 -178 -95 -51 -125 -55 -445 -55 l-298 -1 0 1599 0
1600 303 -1 c285 -1 306 -2 368 -23z"/>
<path d="M16290 12173 l0 -253 385 0 385 0 1 -32 c1 -42 1 -3116 0 -3144 l-1
-22 -347 0 c-192 0 -365 -1 -385 -1 l-38 -1 0 -253 0 -254 1050 0 1050 0 1 26
c0 14 1 128 2 253 l2 228 -40 1 c-22 0 -196 1 -386 1 l-346 1 1 1596 1 1596
383 3 382 2 1 23 c1 26 1 457 0 472 -1 7 -357 10 -1051 10 l-1050 0 0 -252z"/>
</g>
</svg>
